<?xml version="1.0" standalone="no"?>
<!DOCTYPE svg PUBLIC "-//W3C//DTD SVG 1.1//EN" "http://www.w3.org/Graphics/SVG/1.1/DTD/svg11.dtd" >
<svg xmlns="http://www.w3.org/2000/svg" xmlns:svg="http://www.w3.org/2000/svg" xmlns:xlink="http://www.w3.org/1999/xlink" viewBox="0 0 1024 1024"><path d="M67.4 694.87Q85.33 678.2 113.35 696.68Q136.16 693.18 150.57 693.06Q151.06 683.53 161.7 661.14Q178.44 667.39 211.78 617.86Q264.61 622.39 237.37 604.37Q235.58 582.61 221.9 592.4Q199.78 606.01 177.41 575.26Q132.75 590.31 139.01 577.31Q110.27 563.17 133.76 563.48Q116.29 555.54 131.9 543.17Q136.04 556.32 125.83 570.78Q119.25 539.49 132.66 519.07Q156.45 513.92 231.89 548.01Q281.55 546.76 294.28 515.27Q290.05 533.82 305.2 529.78Q309.1 530.71 288.28 534.68Q318.56 521.54 309.89 508.57Q299.83 523.98 291.06 503.3Q294.14 486.92 254.39 500.62Q235.65 517.52 237.45 516.97Q206.54 516.39 195.29 476.04Q172.98 508.26 178.73 485.6Q172.85 489.42 152.27 468.06L179.08 461.16L319.14 431.9Q438.42 451.94 454.2 438.16Q468.03 463.56 466.62 479.14Q494.04 474.44 477.85 471.28Q463.39 478.99 485.41 501.28Q464.61 494.92 427.51 498.38Q408.15 507.85 409.83 521.57Q381.1 510.94 403.27 537.06Q406.1 520.89 434.55 533.14Q454.46 545.92 507.99 515.45H600.75L609.71 497.69Q606.91 493.33 581.32 468.25Q607.12 448.22 627.75 470.51Q626.36 468.42 612.09 446.6Q627.3 467.21 665.57 453.41Q676.72 463.86 690 510.52Q680.12 509.99 690.79 525.98Q694.34 537.03 678.84 518.95Q710.39 529.73 707.91 544.16Q757.55 540.6 777.69 559.34Q838.58 549.23 868.62 549.01Q876.58 540.94 878.68 557.43Q893.09 568.61 913.79 567.99Q905.75 569.54 880.23 605.35Q900.57 593.59 868.47 584.95Q863.38 597.7 858.1 620.53Q815.45 600.99 815.28 622.2Q758.6 600.46 755.71 588.06Q712.1 581.84 722.85 592.67Q706.58 604.7 707.14 607.18Q723.55 635.32 746.69 661.95L783.96 707.79L813.42 684.08Q840.68 675.36 830.8 659.05Q852.38 639.27 870.44 668.74Q873.67 652.77 870.35 650.65Q890.52 655.73 898.26 693.56Q899.21 692.06 867.89 690.57Q895.32 729.99 864.94 740.49Q825.05 749.92 817.36 752.94Q828.07 774.85 825.42 774.89Q829.06 788.75 819.62 770.25Q828.77 793.27 855.51 814.45Q852.04 802.26 856.18 828Q876.06 825 864.2 828.04Q886.67 798.84 879.04 821.08Q894.22 816.56 917.8 785.76Q914.83 806.41 915.72 803.39Q946.33 801.27 923.8 819.19Q952.17 871.79 931.59 893.26Q914.43 899.04 877.81 941.19Q869.58 943.87 870.15 919.06Q852.05 915.94 844.96 909.93Q808.24 891.27 773.48 875.73L745.46 805.26L712.76 842.7Q693.72 852.89 675.27 891.37Q620.65 917.85 582.4 944.91Q566.12 928.54 584.43 948.85Q545.18 914.44 536.86 938.76Q533.97 923.6 542.12 912.84Q539.52 912.2 526.16 884.36Q514.58 876.31 535.74 861.83Q548.26 886.33 541.17 879.28Q587.78 857.06 629 830.57Q709.3 764.76 718.18 764.92Q711.16 761.96 711.8 727.36Q694.93 709.6 670.4 696.4Q655.56 647.02 638.03 656.78Q649.29 608.67 627.86 603.13Q636.15 623.65 632.33 589.01Q596.91 580.16 551.75 600Q490.99 596.76 498.68 585.15Q455.03 595.64 456.02 593.39Q448.56 602.7 469.42 589.09Q481.9 621.12 497.37 616.76Q515.11 647.33 511.18 661.58Q554.99 656.14 547.22 661.92Q531.01 689.73 534.29 670.86Q540.04 690.99 537.47 689.92Q537.65 679.17 534.06 692.93Q532.03 713.75 525.87 690.16Q487.4 680.83 465.8 657.68Q428.06 641.07 399.72 649.12Q403.55 639.41 368.16 652.23Q370.36 625.34 367.02 636.82Q392.7 655 359.11 681.18Q378.77 686.32 332.86 697.4Q356.98 684.07 361.56 717.52Q342.56 705.25 341.2 709.62Q328.61 668.03 318.9 655.31L301.86 624.46L281.13 681.05Q254.46 660.56 254.92 694.74Q221.14 719.03 154.67 729.37Q135.41 752.49 127.24 748.42Q136.57 757.79 109.73 758.03Q124.51 758.42 109.99 744.12Q67.46 726.63 80.02 706.5Q66.91 725.91 91.33 712.22ZM161.53 408.55Q130.24 385.89 125.85 379.79Q153.43 363.25 186.25 359.07Q200.01 355.01 265.95 374.23Q288.59 360.56 338.43 367.64Q422.75 382.85 462.58 353.65Q487.78 380.77 476.52 354.43Q481.57 362.82 476.01 367.15Q485.61 333.31 476.14 360.12Q498.3 347.43 499.66 320.12Q495.91 344.77 450.77 353.67Q455.64 343.18 400.8 321.98Q324.57 319.99 295.1 329.81Q269.95 314.74 290.92 286.97Q269.87 297.13 285.4 314.71Q296.45 287.45 276.82 291.86Q305.18 257.17 380.33 265.35Q461.4 269.41 480.28 267.39Q474.8 280.77 474.28 254.69Q495.53 250.58 477.5 252L486.06 249.17L327.56 249.66Q280.37 230.72 227.88 224.43Q227.07 234.82 212.86 260.53Q174.84 247.82 164.56 225.95Q181.9 226.81 182.17 205.79Q183.89 215.62 170.44 222.76Q172.2 205.07 147.05 211.18Q147.3 168.93 175.69 175.94Q189.51 189.37 246.9 162.8Q330.36 152.84 343.98 186.06Q347.98 164.95 342.94 147.77Q336.39 180.31 324.88 145.3Q343.04 129.88 316.19 118.09Q316.14 108.86 343.57 123.77Q355.63 95.46 367.04 88.81Q394.79 83.84 409.52 100.67Q419.36 101.46 415.67 150.18L412.2 160.54H539.62Q598.41 148.83 607.21 172.95Q617.21 150.97 611.55 168.82Q632.49 163.95 620.9 142.82Q627.04 144.82 622.76 102.52Q637.2 85.39 657.4 107.91Q671.65 82.77 675.98 64.51Q664.28 89.85 667.72 85.13Q674.24 92.95 704.84 95.63Q703.65 106.77 691.13 126.34Q718.33 127.5 713.85 122.03Q693.36 149.44 712.44 143.34L700.6 160.52H746.22Q797.14 179.06 812.57 172.87Q832.02 182.78 829.34 197.55Q843.34 189.51 846.33 179.69Q833.69 210.03 852.04 197.63Q843.36 210.61 833.71 223.42Q837.5 233.45 817.51 244.8Q818.45 231.73 708.54 257.16Q702.9 255.51 705.85 248.66Q620.75 245.67 600.92 258.21Q575.3 245.76 579.17 238.01V271.68Q550.35 258.82 569.32 275.14Q545.6 273.28 592.38 276.92Q597.16 257.25 628.91 268.11Q690.38 265.07 705.14 281.34Q717.58 276.02 741.39 277.28Q761.38 277.59 766.22 310.37Q772.59 281.67 747.55 304.92Q745.43 310.76 751.93 325.86L736.56 332.79H636.38Q581.65 318.21 569.46 337.94Q568.38 347.44 553.03 340.51Q579.49 364.9 569.4 349.41Q574.95 344.86 574.64 360.07Q556.99 366.78 596.67 373.09Q615.51 369.89 712.44 360.18Q781.08 384.25 852.75 375.55Q895.54 360.61 892.72 384.81Q898.44 376.19 899.84 391.86Q918.24 396.53 906.86 414.38Q894.17 413.85 883.8 408.44Q896.69 424.02 884.6 447.99Q853.75 424.68 780 429.98H624.61Q513.38 428.72 408.92 425.35Q243.93 416.91 198.07 403.59Q125.12 399.96 129.62 415.55Q124.54 391.86 147.25 379.13ZM233.05 715.46Q254.25 720.21 268.51 695.97Q307.06 688.5 380.65 688.39Q441.65 724 455.02 726.95Q461.34 736.79 486.41 728.3Q488.35 720.56 469.13 739.4Q466.69 724.99 452.43 747.26Q453.4 737.22 426.75 769.05Q427.46 764.58 412.69 740.2Q349.54 742.11 318.7 750.03Q312.31 745.45 339.13 760.75Q313.58 754.72 331.91 785.99Q337.68 794.59 320.81 797.3Q350.88 765.94 414.32 769.86Q404.72 787.05 400.93 800.63Q450.82 796.61 468.55 802.48Q456.05 788.54 455.94 824.34Q456.8 825.96 458.6 856.51Q443.75 894.41 436.57 931.35Q438.45 929.09 416.27 930.78Q408.2 933.58 416.63 931.91Q385.84 940.24 397.25 927.62Q358.56 935.87 378.49 921.49Q365.88 910.19 370.52 913.33Q365.19 919.52 352.07 919.93Q336.05 911.64 366.33 876.22Q371.4 863.5 369.06 858.2Q378.76 872.94 413.76 874.42Q405.92 868.27 403.19 828.62Q391.74 832.62 416.35 834.27Q395.3 861.57 367.26 843.48Q348.6 850.33 353.14 847.25Q297.53 843.38 253.07 840.95Q255.57 807.14 255.7 787.44Q244.32 797.19 252.29 770.98Q270.44 758.82 235.29 785.58Q260.74 763.14 247 761.12Q226.25 745.19 206.31 730.56Q188.91 720.4 207.97 752.43Q215.33 715.03 239.31 694.81ZM740.36 454.78Q750.29 456.7 792.92 444.84Q783.1 467.01 796.35 459.62Q790.71 457.09 819.09 451.4Q836.17 457.29 816.57 471.81Q835.85 500.88 827.72 505.35Q832.49 495.59 813.3 494.92Q817.43 514.29 811.77 516.99Q816.5 535.86 818.23 530.29Q779.31 521.45 756.83 525.05Q741.86 506.19 760.41 501.01Q751.08 479.77 742.16 482.08Q761.33 482.46 762.04 480.76Z" fill="black"></path></svg>