<?xml version="1.0" standalone="no"?>
<!DOCTYPE svg PUBLIC "-//W3C//DTD SVG 1.1//EN" "http://www.w3.org/Graphics/SVG/1.1/DTD/svg11.dtd" >
<svg xmlns="http://www.w3.org/2000/svg" xmlns:svg="http://www.w3.org/2000/svg" xmlns:xlink="http://www.w3.org/1999/xlink" viewBox="0 0 1024 1024"><path d="M82.5 707.0Q89.5 694.0 116.5 687.0Q125.5 684.0 135.5 680.0Q145.5 676.0 152.5 671.0Q181.5 653.0 214.0 628.5Q246.5 604.0 250.5 599.0Q248.5 597.0 232.0 595.5Q215.5 594.0 192.5 594.0Q149.5 594.0 135.0 588.0Q120.5 582.0 120.5 567.0Q120.5 565.0 120.5 563.0Q120.5 561.0 120.5 560.0Q120.5 542.0 143.0 535.5Q165.5 529.0 228.5 529.0Q282.5 529.0 295.0 527.0Q307.5 525.0 307.5 518.0Q307.5 517.0 307.5 516.0Q307.5 515.0 307.5 513.0Q307.5 507.0 297.5 504.5Q287.5 502.0 244.5 502.0Q234.5 502.0 225.5 502.0Q187.5 502.0 177.0 496.0Q166.5 490.0 166.5 481.0Q166.5 474.0 170.5 466.0L178.5 450.0L316.5 451.0Q421.5 451.0 452.5 456.0Q483.5 461.0 483.5 474.0Q483.5 476.0 482.5 478.0Q480.5 491.0 466.0 496.5Q451.5 502.0 421.5 502.0Q401.5 502.0 393.5 508.0Q385.5 514.0 385.5 529.0Q386.5 532.0 415.5 533.0Q444.5 534.0 489.5 534.0H593.5L592.5 502.0Q592.5 475.0 599.0 463.0Q605.5 451.0 623.5 451.0Q625.5 451.0 626.5 451.0Q642.5 451.0 656.0 464.0Q669.5 477.0 676.5 502.0Q680.5 513.0 684.0 521.0Q687.5 529.0 689.5 531.0Q692.5 532.0 719.5 535.0Q746.5 538.0 788.5 541.0Q836.5 545.0 862.0 549.5Q887.5 554.0 892.5 559.0Q903.5 568.0 903.5 577.0Q903.5 586.0 892.5 595.0Q885.5 603.0 874.0 604.0Q862.5 605.0 853.5 605.0Q833.5 605.0 797.5 603.0Q759.5 601.0 738.0 601.0Q716.5 601.0 716.5 604.0Q716.5 608.0 725.5 622.5Q734.5 637.0 746.5 657.0L775.5 703.0L806.5 678.0Q833.5 657.0 844.0 654.5Q854.5 652.0 857.5 652.0Q870.5 652.0 881.5 664.0Q889.5 673.0 889.5 683.0Q889.5 689.0 885.0 700.5Q880.5 712.0 849.5 738.0Q833.5 752.0 823.5 763.0Q813.5 774.0 813.5 777.0Q813.5 781.0 821.5 788.0Q829.5 795.0 840.5 802.0Q856.5 813.0 861.5 814.0Q866.5 815.0 868.5 815.0Q874.5 815.0 880.5 810.0Q892.5 804.0 904.5 804.0Q913.5 804.0 927.5 809.5Q941.5 815.0 943.5 835.0Q941.5 853.0 924.5 885.5Q907.5 918.0 892.5 925.0Q886.5 929.0 878.5 929.0Q866.5 929.0 847.0 918.0Q827.5 907.0 788.5 867.0L739.5 819.0L716.5 844.0Q694.5 865.0 658.5 890.5Q622.5 916.0 595.5 928.0Q580.5 933.0 567.5 933.0Q551.5 933.0 537.5 924.5Q523.5 916.0 523.5 901.0Q523.5 894.0 527.5 885.0Q530.5 880.0 537.0 875.5Q543.5 871.0 548.5 867.0Q577.5 856.0 637.0 812.0Q696.5 768.0 703.5 754.0Q703.5 750.0 693.0 732.0Q682.5 714.0 667.5 689.0Q651.5 664.0 640.5 643.0Q629.5 622.0 628.5 615.0Q628.5 604.0 615.0 601.5Q601.5 599.0 543.5 599.0Q509.5 599.0 487.0 600.0Q464.5 601.0 464.5 603.0Q464.5 604.0 471.5 608.0Q478.5 612.0 489.5 617.0Q516.5 628.0 529.5 643.0Q542.5 658.0 542.5 668.0Q542.5 673.0 539.5 678.0Q538.5 684.0 534.0 688.5Q529.5 693.0 523.5 694.0Q522.5 694.0 520.5 694.0Q506.5 694.0 462.0 677.0Q417.5 660.0 404.5 648.0Q395.5 639.0 387.5 639.0Q379.5 639.0 379.5 648.0Q377.5 662.0 368.5 678.0Q359.5 694.0 349.5 700.0Q346.5 701.0 343.5 701.0Q333.5 701.0 321.5 691.5Q309.5 682.0 305.5 664.0L304.5 644.0L282.5 662.0Q264.5 675.0 235.0 694.5Q205.5 714.0 172.5 734.0Q151.5 747.0 139.0 748.0Q126.5 749.0 124.5 749.0Q105.5 749.0 93.5 738.0Q80.5 726.0 80.5 715.0Q80.5 711.0 82.5 707.0ZM145.5 396.0Q144.5 393.0 144.5 391.0Q144.5 375.0 169.0 370.5Q193.5 366.0 268.5 366.0Q295.5 366.0 329.5 367.0Q439.5 367.0 467.0 365.0Q494.5 363.0 494.5 358.0Q494.5 357.0 493.5 356.0Q491.5 352.0 490.5 347.0Q489.5 342.0 489.5 340.0Q489.5 338.0 464.5 336.0Q439.5 334.0 401.5 334.0Q334.5 334.0 308.5 328.0Q282.5 322.0 278.5 306.0Q276.5 301.0 276.5 297.0Q276.5 284.0 296.5 277.5Q316.5 271.0 390.5 270.0Q458.5 268.0 473.0 265.0Q487.5 262.0 487.5 253.0Q487.5 251.0 487.5 250.0L491.5 235.0L338.5 241.0Q272.5 243.0 237.5 243.0Q219.5 243.0 199.5 242.0Q179.5 241.0 176.5 234.0Q172.5 230.0 169.0 222.0Q165.5 214.0 165.5 208.0Q165.5 206.0 165.5 205.0Q165.5 188.0 184.5 181.0Q203.5 174.0 264.5 172.0Q313.5 171.0 327.5 168.0Q341.5 165.0 341.5 161.0Q341.5 161.0 341.5 160.0Q335.5 140.0 335.5 126.0Q335.5 115.0 341.5 104.0Q347.5 93.0 374.5 93.0Q392.5 93.0 405.0 106.5Q417.5 120.0 422.5 144.0L426.5 165.0H521.5Q590.5 165.0 605.0 163.5Q619.5 162.0 619.5 156.0Q619.5 154.0 619.5 153.0Q620.5 138.0 632.5 117.5Q644.5 97.0 656.5 88.0Q666.5 81.0 674.5 81.0Q674.5 81.0 679.0 81.5Q683.5 82.0 694.5 91.0Q707.5 100.0 708.5 108.5Q709.5 117.0 709.5 120.0Q709.5 133.0 703.5 149.0L696.5 165.0H743.5Q784.5 167.0 812.5 172.5Q840.5 178.0 845.5 187.0Q849.5 190.0 851.5 197.5Q853.5 205.0 853.5 212.0Q853.5 213.0 853.5 213.0Q853.5 232.0 826.5 237.5Q799.5 243.0 720.5 243.0Q707.5 243.0 692.5 243.0Q633.5 243.0 600.0 244.5Q566.5 246.0 566.5 250.0V255.0Q566.5 259.0 565.5 261.0Q565.5 262.0 588.0 265.0Q610.5 268.0 644.5 270.0Q691.5 271.0 713.0 274.0Q734.5 277.0 743.5 284.0Q755.5 291.0 756.5 294.5Q757.5 298.0 757.5 299.0Q757.5 305.0 752.5 315.0L741.5 334.0H653.5Q590.5 334.0 579.0 336.0Q567.5 338.0 567.5 345.0Q567.5 347.0 568.5 349.0Q568.5 350.0 568.5 351.0Q568.5 360.0 592.0 362.5Q615.5 365.0 728.5 367.0Q797.5 369.0 844.0 370.5Q890.5 372.0 896.5 374.0Q904.5 380.0 904.5 391.0Q904.5 392.0 904.0 398.5Q903.5 405.0 892.5 417.0Q887.5 426.0 866.0 429.0Q844.5 432.0 768.5 432.0H616.5Q514.5 432.0 410.5 430.0Q224.5 428.0 184.5 423.0Q144.5 418.0 144.5 402.0Q144.5 399.0 145.5 396.0ZM224.5 709.0Q239.5 706.0 288.5 706.0Q312.5 706.0 378.5 707.5Q444.5 709.0 464.5 712.0Q469.5 717.0 469.5 723.0Q469.5 725.0 468.5 730.5Q467.5 736.0 458.5 745.0Q455.5 750.0 441.0 753.0Q426.5 756.0 395.5 756.0Q350.5 756.0 335.5 759.5Q320.5 763.0 320.5 772.0Q320.5 773.0 320.5 774.0Q320.5 779.0 332.0 781.0Q343.5 783.0 399.5 784.0Q403.5 784.0 407.5 784.0Q458.5 784.0 466.5 793.5Q474.5 803.0 474.5 818.0Q474.5 835.0 467.5 864.0Q458.5 912.0 447.5 927.5Q436.5 943.0 412.5 943.0Q409.5 943.0 406.5 943.0Q392.5 943.0 381.5 939.5Q370.5 936.0 363.5 927.0Q356.5 921.0 352.0 914.0Q347.5 907.0 347.5 903.0Q347.5 894.0 358.0 883.5Q368.5 873.0 379.5 873.0Q390.5 871.0 396.5 861.5Q402.5 852.0 402.5 848.0Q402.5 846.0 401.5 844.0Q397.5 842.0 380.5 841.0Q363.5 840.0 338.5 840.0Q284.5 840.0 267.5 830.5Q250.5 821.0 250.5 796.0Q250.5 793.0 250.5 790.0Q250.5 772.0 247.5 766.5Q244.5 761.0 233.5 761.0Q210.5 759.0 209.0 747.5Q207.5 736.0 207.5 734.0Q207.5 717.0 224.5 709.0ZM759.5 462.0Q769.5 452.0 779.5 452.0Q780.5 452.0 786.0 452.5Q791.5 453.0 811.5 468.0Q824.5 477.0 828.5 484.0Q832.5 491.0 832.5 498.0Q832.5 501.0 831.5 504.0Q829.5 525.0 821.0 526.5Q812.5 528.0 809.5 528.0Q795.5 528.0 773.5 514.0Q754.5 500.0 752.0 493.0Q749.5 486.0 749.5 483.0Q749.5 473.0 759.5 462.0Z" fill="black"></path></svg>